<svg version="1.1" id="Layer_1" xmlns="http://www.w3.org/2000/svg" xmlns:xlink="http://www.w3.org/1999/xlink" x="0px" y="0px"
	 width="100%" viewBox="0 0 500 500" enable-background="new 0 0 500 500" xml:space="preserve">
<path fill="#000000" opacity="1.000000" stroke="none" 
	d="
M244.000000,501.000000 
	C162.666687,501.000000 81.833374,501.000000 1.000043,501.000000 
	C1.000029,334.333405 1.000029,167.666779 1.000014,1.000133 
	C167.666565,1.000089 334.333130,1.000089 500.999756,1.000044 
	C500.999847,167.666519 500.999847,334.333038 500.999939,500.999786 
	C415.500000,501.000000 330.000000,501.000000 244.000000,501.000000 
M300.811493,207.968979 
	C303.562012,207.540390 306.312561,207.111801 309.063110,206.683228 
	C309.073730,206.340637 309.084351,205.998062 309.095001,205.655487 
	C303.695770,203.505280 298.296539,201.355072 292.897308,199.204865 
	C293.026886,198.594971 293.156464,197.985077 293.286011,197.375183 
	C298.290161,198.149902 303.385162,198.561035 308.277313,199.783752 
	C315.796265,201.662994 323.112488,205.178528 331.789337,200.969559 
	C327.858185,198.890808 324.564636,197.149216 320.415039,194.954956 
	C329.965027,192.924881 340.117523,200.399643 347.861877,192.188568 
	C347.815155,191.644196 347.768402,191.099838 347.721680,190.555481 
	C343.486023,190.555481 339.250366,190.555481 334.069000,190.555481 
	C344.887421,184.956619 359.057098,186.565216 362.840759,171.550629 
	C351.501068,172.305466 347.116760,183.173828 338.199310,187.272232 
	C339.850006,182.898041 341.229950,179.241348 342.609894,175.584656 
	C341.954651,175.259598 341.299408,174.934540 340.644165,174.609467 
	C337.878510,178.469849 334.879242,182.187027 332.404205,186.225494 
	C329.036255,191.720963 318.896057,196.596420 312.617065,195.406815 
	C320.010223,190.907700 325.403442,184.773926 327.293335,175.735260 
	C320.134613,180.700699 313.604279,186.281494 307.393707,192.197937 
	C303.645935,195.768234 299.604431,197.557159 293.935394,196.744049 
	C303.159851,193.370575 308.476196,186.924896 312.229980,178.953812 
	C302.794830,177.712845 297.925110,184.543854 292.202209,189.448730 
	C285.812744,194.924896 279.007904,198.206802 270.331177,196.521667 
	C283.301727,196.141800 289.127960,186.958603 294.257996,176.689224 
	C288.284271,178.964737 282.190186,181.324005 277.467773,185.308884 
	C266.177032,194.836258 254.995728,196.192490 244.650528,188.153259 
	C266.789032,187.631790 272.990204,185.302689 279.649536,174.818375 
	C277.686249,175.034882 275.905640,175.243286 274.122375,175.425842 
	C265.571533,176.301224 258.185516,180.324936 251.072617,184.613174 
	C244.948471,188.305328 240.049866,186.298233 235.237320,182.667130 
	C231.613693,179.933075 228.282166,176.811890 224.820587,173.863007 
	C221.112503,176.670227 224.333832,177.707840 225.897766,178.970123 
	C233.488815,185.096924 240.980087,191.363876 248.813705,197.166748 
	C252.872833,200.173584 257.569275,202.320038 261.977814,204.855179 
	C262.436188,204.219604 262.894531,203.584030 263.352875,202.948456 
	C260.566010,200.488937 257.779114,198.029434 254.083588,194.768051 
	C260.706360,195.760193 264.359070,198.921524 268.079773,202.443054 
	C274.134094,208.173279 281.567535,210.379379 290.178772,208.666046 
	C284.827057,205.376190 279.475342,202.086319 274.123657,198.796463 
	C274.383057,198.217804 274.642426,197.639130 274.901825,197.060471 
	C279.072632,198.680069 283.278534,200.215790 287.404541,201.942474 
	C291.664520,203.725235 295.846771,205.693710 300.811493,207.968979 
M86.895294,274.976624 
	C91.126190,275.317719 95.430962,276.324493 99.572983,275.864807 
	C108.895203,274.830231 117.558228,271.899017 122.944305,263.379456 
	C123.618881,262.312408 123.036469,260.450745 123.036469,258.957245 
	C122.418221,258.772766 121.799980,258.588287 121.181732,258.403809 
	C119.930794,259.953735 118.916534,261.805023 117.389969,263.004028 
	C108.370949,270.087677 96.860870,273.109680 86.170158,265.752167 
	C78.992264,260.812256 75.732185,253.629395 74.356621,245.602036 
	C72.521988,234.895630 75.570480,219.497711 86.657959,212.808441 
	C99.378677,205.133820 115.224258,211.373520 116.939362,225.832840 
	C117.355171,229.338394 119.254608,229.168228 121.799942,228.792267 
	C121.799942,220.862015 121.799942,213.091110 121.799942,205.167480 
	C119.834373,205.167480 118.069077,205.167480 116.270119,205.167480 
	C116.041672,206.525497 115.839661,207.726334 115.590828,209.205566 
	C114.250420,208.590836 113.261902,208.088821 112.237709,207.675110 
	C98.459694,202.109695 82.126450,203.759415 72.755661,214.853012 
	C65.260445,223.726257 62.600254,234.138779 63.916721,245.811432 
	C65.524780,260.069519 72.727341,269.644196 86.895294,274.976624 
M394.877533,229.350296 
	C399.549194,234.421432 398.954926,240.589142 398.981018,247.090485 
	C389.417938,246.191071 381.200714,248.782410 373.933777,254.065704 
	C369.284088,257.446167 366.341766,266.044159 372.296326,271.824066 
	C378.498779,277.844604 390.009003,277.510315 397.582123,270.961487 
	C397.911591,270.676575 398.379089,270.551270 398.830872,270.327545 
	C398.967896,271.587646 399.088257,272.694458 399.210266,273.816467 
	C404.170654,273.816467 408.960785,273.816467 413.809265,273.816467 
	C413.809265,272.190216 413.809265,270.753387 413.809265,269.658936 
	C411.824158,269.768738 410.009552,269.869110 407.999969,269.980286 
	C407.999969,259.406494 408.310059,249.420441 407.899048,239.464157 
	C407.586121,231.883423 405.422272,226.219604 397.829315,224.490997 
	C390.928223,222.919891 383.605835,223.226425 377.580475,227.384918 
	C374.976715,229.181946 372.872681,232.888046 372.256348,236.060089 
	C371.585571,239.512115 374.211273,241.867004 378.194397,240.964859 
	C381.531860,240.208954 381.865967,238.047836 381.616699,234.783676 
	C381.477722,232.963409 383.573853,229.897797 385.337799,229.259827 
	C387.955963,228.312912 391.172760,229.021301 394.877533,229.350296 
M135.391052,266.926910 
	C146.575241,281.355774 165.815247,276.531769 173.624481,267.919189 
	C175.945038,265.359894 176.459976,263.408722 172.747040,261.927612 
	C164.311523,269.810699 156.965424,271.952362 150.377213,268.807587 
	C144.163391,265.841522 141.078659,256.776123 141.410538,246.405777 
	C152.551605,246.405777 163.719635,246.405777 174.792557,246.405777 
	C175.637238,234.919754 170.179611,227.378708 162.786636,225.064453 
	C152.003738,221.689041 142.069580,224.930664 136.333725,232.530350 
	C128.313568,243.156616 127.891769,254.766129 135.391052,266.926910 
M218.102509,271.628693 
	C234.274872,278.985962 243.774277,277.258942 254.168167,264.861816 
	C253.299408,263.935211 252.406464,262.982819 251.518814,262.036041 
	C244.034073,269.532501 234.943939,271.878906 228.723434,268.790070 
	C223.786835,266.338806 218.928711,258.332825 220.493378,246.471344 
	C231.548477,246.471344 242.721024,246.471344 254.043671,246.471344 
	C253.326111,236.484253 250.635696,228.545898 241.244537,225.153305 
	C233.825562,222.473190 226.277832,223.133987 219.848343,227.800262 
	C205.690063,238.075760 205.201401,260.252319 218.102509,271.628693 
M269.852875,273.975281 
	C274.650024,274.650146 279.441132,275.824066 284.245789,275.882568 
	C291.394440,275.969635 297.502747,270.266449 298.975281,263.046173 
	C299.945404,258.289307 295.981598,251.894363 290.251556,249.024994 
	C285.100800,246.445694 280.045410,243.632614 274.742798,241.412781 
	C270.101562,239.469864 270.056488,235.608902 271.420135,232.436630 
	C272.979797,228.808472 277.014496,227.778030 280.942383,228.478256 
	C287.014069,229.560638 289.646576,233.908722 291.088043,239.465317 
	C291.394714,240.647491 292.930756,241.510757 294.792267,243.449982 
	C294.792267,235.772278 294.792267,229.993729 294.792267,224.184387 
	C291.742279,224.479187 288.896179,225.019394 286.062012,224.962631 
	C282.325897,224.887802 278.534363,223.734787 274.881287,224.123245 
	C266.032867,225.064148 261.298920,232.928436 261.936768,239.128601 
	C262.474518,244.355560 266.844116,249.888657 272.380737,252.038208 
	C277.002991,253.832748 281.693909,255.642822 285.924286,258.166931 
	C287.823212,259.299957 289.628235,262.161316 289.698853,264.297150 
	C289.756683,266.047607 287.547974,268.533691 285.710327,269.569000 
	C278.679047,273.530334 269.671906,269.679321 266.966278,261.913910 
	C265.609528,258.019867 265.609528,258.019867 261.761047,258.760345 
	C262.049164,264.062408 262.339783,269.411163 262.680237,275.676697 
	C265.457489,274.797577 267.280182,274.220642 269.852875,273.975281 
M336.990479,270.510071 
	C337.928864,269.103424 338.867279,267.696777 339.900848,266.147491 
	C338.746460,265.295654 337.739014,264.552277 336.443329,263.596252 
	C335.627350,264.582855 334.988800,265.354279 334.350861,266.126221 
	C331.679169,269.359283 327.643250,270.181946 324.606476,268.501984 
	C322.576111,267.378723 321.489594,263.441864 321.149170,260.623016 
	C320.595978,256.042297 321.000000,251.345993 321.000000,246.698471 
	C321.000000,241.251709 321.000000,235.804947 321.000000,229.982513 
	C326.495514,229.982513 331.584045,229.982513 337.009338,229.982513 
	C336.919647,228.067322 336.849121,226.561737 336.769012,224.851440 
	C331.291687,224.851440 326.344269,224.851440 321.034973,224.851440 
	C321.034973,220.538208 321.034973,216.443161 321.034973,212.178741 
	C319.240906,212.178741 317.810608,212.178741 316.536255,212.178741 
	C314.102356,218.289978 311.150604,223.694916 304.219666,225.419708 
	C304.219666,226.867188 304.219666,228.286560 304.219666,230.072937 
	C306.515594,230.072937 308.597900,230.072937 311.000000,230.072937 
	C311.000000,240.397171 310.954742,250.353210 311.014587,260.308594 
	C311.060852,268.009583 314.602081,274.336243 320.350494,275.693237 
	C326.368134,277.113800 331.980072,275.635925 336.990479,270.510071 
M183.033432,273.978943 
	C189.318024,273.978943 195.602631,273.978943 202.021240,273.978943 
	C201.938934,272.406677 201.880997,271.300018 201.822830,270.188721 
	C199.747375,270.021545 197.985672,269.879669 196.623535,269.769958 
	C196.623535,246.782303 196.623535,224.082947 196.623535,200.953934 
	C191.492264,201.850540 186.351135,202.748871 180.979843,203.687424 
	C181.048157,204.977112 181.122879,206.388275 181.200180,207.847610 
	C183.639145,207.980087 185.736862,208.094025 187.000000,208.162643 
	C187.000000,214.058090 187.000000,219.599152 187.000000,225.140198 
	C187.000000,237.615555 187.012054,250.090912 186.991882,262.566254 
	C186.986542,265.869293 187.803162,269.564789 183.011978,270.666382 
	C182.534241,270.776245 182.457855,272.631653 183.033432,273.978943 
M427.557739,274.000000 
	C430.723969,273.999939 433.900146,273.842712 437.053802,274.041931 
	C440.537415,274.261963 440.264862,272.481445 439.695221,270.131927 
	C437.684631,270.014862 435.940887,269.913330 433.881775,269.793457 
	C433.881775,246.655090 433.881775,223.879333 433.881775,200.896133 
	C428.454926,201.847244 423.394012,202.734222 418.219879,203.641052 
	C418.219879,204.861420 418.219879,206.268250 418.219879,208.052277 
	C420.510742,208.052277 422.589417,208.052277 424.999237,208.052277 
	C424.999237,226.894196 425.062347,245.357483 424.933533,263.819427 
	C424.913452,266.699158 424.208038,269.604767 420.746246,270.779327 
	C419.871277,271.076263 419.312836,272.306213 417.824707,274.000000 
	C421.642487,274.000000 424.114899,274.000000 427.557739,274.000000 
M343.213470,273.699036 
	C350.003479,273.699036 356.793488,273.699036 363.946228,273.699036 
	C363.863892,272.469971 363.784546,271.286194 363.710785,270.185333 
	C361.600555,270.008759 359.862732,269.863373 357.794861,269.690338 
	C357.794861,254.266861 357.794861,239.190338 357.794861,224.032303 
	C352.372681,225.384872 347.302582,226.649597 341.968536,227.980179 
	C342.043701,229.021515 342.145447,230.430649 342.246429,231.829330 
	C344.671967,231.977493 346.746643,232.104218 349.000000,232.241882 
	C349.000000,241.078369 348.907440,249.560059 349.032806,258.038513 
	C349.115082,263.604492 349.749298,269.263702 343.085876,271.891541 
	C342.957458,271.942200 343.035736,272.516998 343.213470,273.699036 
M134.177704,185.997787 
	C134.756531,185.622986 135.883636,185.128326 135.831863,184.891403 
	C135.069733,181.404968 134.150726,177.952835 133.214142,174.277298 
	C138.324890,174.277298 142.064682,174.277298 146.383209,174.277298 
	C145.909546,178.243744 145.476837,181.867172 145.029297,185.614700 
	C147.052094,185.614700 149.976578,185.614700 153.225327,185.614700 
	C150.160538,182.063995 150.149902,163.285721 153.042938,159.230942 
	C149.962128,159.230942 147.045410,159.230942 145.239166,159.230942 
	C145.580643,163.089355 145.911957,166.832840 146.262115,170.789215 
	C141.825043,170.789215 138.087296,170.789215 133.699051,170.789215 
	C134.092178,166.768616 134.457565,163.031693 134.823685,159.287384 
	C132.886658,159.287384 129.998642,159.287384 127.747559,159.287384 
	C129.709702,168.257278 129.749146,176.964188 127.695770,185.999847 
	C129.337097,185.999847 131.311401,185.999847 134.177704,185.997787 
M299.034668,306.702789 
	C297.444427,311.632050 295.854187,316.561310 294.088745,322.033630 
	C296.074738,321.934387 297.204315,322.080078 297.290527,321.844330 
	C300.061737,314.264282 302.732086,306.647339 305.318848,299.315918 
	C310.469299,298.297974 315.434143,297.316681 321.066376,296.203491 
	C318.102051,304.182312 315.457428,311.045868 313.066498,317.996704 
	C312.686157,319.102417 313.446198,320.600403 313.678955,321.917023 
	C314.785126,321.058319 316.499390,320.417480 316.897858,319.305206 
	C319.316620,312.553955 321.495850,305.713837 323.605530,298.857361 
	C324.050201,297.412201 323.872345,295.775543 323.982117,294.216370 
	C312.036804,294.216370 300.614105,294.216370 288.953217,294.216370 
	C289.053589,296.281830 289.142487,298.110657 289.176880,298.818726 
	C293.962463,297.989746 298.303986,297.237640 303.607330,296.318939 
	C301.834564,300.472046 300.649200,303.248962 299.034668,306.702789 
M268.961151,311.717804 
	C269.284149,319.953735 272.538025,322.939697 280.163910,321.998016 
	C284.171021,321.503235 288.245178,316.397522 287.983856,312.198090 
	C287.679016,307.299500 284.421570,304.030243 279.629364,304.032745 
	C277.446777,304.033905 275.264404,304.387512 272.709717,304.614288 
	C275.091705,300.949280 273.963593,294.222961 281.665253,296.279297 
	C281.751160,296.583496 281.805908,297.050812 282.008057,297.442017 
	C282.623566,298.633453 283.156219,299.925201 284.042419,300.879608 
	C284.269531,301.124207 286.359253,300.359985 286.422394,299.898895 
	C286.600739,298.596680 286.525665,297.018951 285.915527,295.894196 
	C284.010529,292.382324 277.489532,291.862518 273.773346,294.758850 
	C268.357544,298.979858 268.560760,305.031860 268.961151,311.717804 
M196.592163,318.995117 
	C195.841248,315.458160 195.090332,311.921234 194.339417,308.384277 
	C194.923752,307.983276 195.508087,307.582245 196.092422,307.181244 
	C198.283127,308.607788 200.473831,310.034332 202.374481,311.271973 
	C202.374481,308.575165 202.374481,305.312256 202.374481,302.049316 
	C202.063889,302.041046 201.753311,302.032745 201.442719,302.024475 
	C201.159714,303.342194 200.876709,304.659912 200.623993,305.836670 
	C198.644363,305.836670 197.023758,305.836670 195.348206,305.836670 
	C195.348206,302.462250 195.348206,299.262177 195.348206,296.084259 
	C197.859253,296.084259 200.299469,295.460785 202.104782,296.264130 
	C203.822296,297.028381 204.876572,299.283203 206.610992,301.344391 
	C206.610992,298.766510 206.610992,296.608917 206.610992,294.314636 
	C200.518005,294.314636 194.327011,294.314636 187.895691,294.314636 
	C190.818024,298.042023 190.825546,316.805298 187.778351,321.000000 
	C192.747406,321.000000 197.350845,321.000153 201.954285,320.999969 
	C209.576065,320.999634 209.687393,320.866302 207.995010,312.818207 
	C206.578323,314.341339 206.003067,316.822632 204.498383,317.688232 
	C202.561035,318.802765 199.878754,318.622314 196.592163,318.995117 
M156.859772,180.346024 
	C159.566055,186.370438 162.043274,187.815170 168.262985,186.996475 
	C173.591492,186.295090 176.420105,181.444046 175.999817,173.727890 
	C175.765930,169.433899 171.966080,166.062958 167.288651,166.000000 
	C158.839615,165.886276 155.488190,170.072037 156.859772,180.346024 
M196.688171,168.034851 
	C191.356339,176.290894 191.971100,182.019363 198.624603,186.078735 
	C203.618912,189.125809 211.066238,186.190994 211.378815,181.052597 
	C202.779892,186.129623 200.980789,185.360550 198.072647,174.975449 
	C202.745193,174.975449 207.307465,174.975449 213.650162,174.975449 
	C211.156219,171.290695 209.891556,167.287109 207.589432,166.557663 
	C204.667587,165.631821 200.903748,167.363235 196.688171,168.034851 
M213.348007,310.894806 
	C216.619720,312.900574 219.891418,314.906342 223.618835,317.191528 
	C216.997375,322.375519 215.120712,317.326874 212.262482,312.896912 
	C212.262482,316.713531 212.262482,319.267151 212.262482,321.500549 
	C215.043137,321.673370 217.668869,321.863281 220.297546,321.993225 
	C223.707291,322.161804 226.021484,320.335083 226.822144,317.291473 
	C227.676315,314.044556 225.927704,311.716675 222.864212,310.381165 
	C220.970245,309.555511 218.953583,308.850372 217.328934,307.639160 
	C216.572906,307.075562 216.617996,305.437347 216.299957,304.286255 
	C217.576050,304.053284 219.394501,303.179932 220.022690,303.711945 
	C221.659637,305.098328 222.774796,307.100861 224.525177,309.424622 
	C224.525177,306.361908 224.525177,303.801422 224.525177,301.229065 
	C212.281235,300.104095 210.560928,301.457794 213.348007,310.894806 
M258.000000,312.300507 
	C257.325256,315.140686 256.650482,317.980865 256.061554,320.459717 
	C258.806549,320.459717 262.378601,320.459717 264.967926,320.459717 
	C264.217194,318.382751 263.128937,316.711853 263.083221,315.012939 
	C262.887787,307.750519 263.000000,300.479797 263.000000,291.646942 
	C258.903992,294.474762 255.787399,296.626404 252.670807,298.778015 
	C252.910980,299.189941 253.151154,299.601868 253.391327,300.013794 
	C254.845505,299.726593 256.299683,299.439362 258.000000,299.103546 
	C258.000000,303.407990 258.000000,307.383179 258.000000,312.300507 
M221.000000,167.523911 
	C221.000000,163.738373 221.000000,159.952820 221.000000,156.095261 
	C218.421417,156.600174 216.244827,157.026352 214.330353,157.401230 
	C217.052261,166.923141 216.409103,176.284744 215.050323,185.680435 
	C217.164703,185.680435 220.030853,185.680435 222.855865,185.680435 
	C219.279480,180.078140 221.765671,174.113144 221.000000,167.523911 
M241.933014,303.434357 
	C241.560822,298.029694 236.788132,302.855530 235.194351,300.415131 
	C234.997711,298.986725 234.792175,297.493835 234.521912,295.530823 
	C230.125702,300.908356 230.138138,300.906219 230.981689,305.836151 
	C231.092484,306.483704 230.999756,307.166229 230.999847,307.832550 
	C231.000229,310.331238 231.107574,312.835754 230.973328,315.327209 
	C230.797363,318.592865 231.673874,321.187714 235.161804,321.944580 
	C239.028030,322.783600 241.457062,320.931976 242.408386,316.729095 
	C240.772842,317.479462 239.137283,318.229858 236.150314,319.600250 
	C235.624222,314.095032 235.150452,309.137238 234.655594,303.958832 
	C237.516266,303.958832 239.347702,303.958832 241.933014,303.434357 
M188.014252,186.982162 
	C189.810165,185.722946 191.606079,184.463745 194.039627,182.757462 
	C192.428543,182.222076 192.083069,181.970932 191.827759,182.042297 
	C184.998734,183.951065 185.000290,183.956680 185.000015,175.970428 
	C184.999939,173.702896 185.000000,171.435364 185.000000,168.999420 
	C186.856354,168.999420 188.199646,169.175980 189.465775,168.939468 
	C190.360443,168.772339 191.150574,168.045578 191.987366,167.568649 
	C191.195435,167.046066 190.457184,166.221634 189.599426,166.069122 
	C188.185837,165.817749 186.694946,166.000931 185.257523,166.000931 
	C185.042587,164.081451 184.873276,162.569366 184.674500,160.794083 
	C179.955856,164.486053 179.448364,165.967270 180.939285,170.081512 
	C181.206009,170.817551 180.998032,171.727814 180.998871,172.557632 
	C181.001770,175.379349 180.974380,178.201370 181.006165,181.022720 
	C181.051880,185.081299 182.573441,187.653503 188.014252,186.982162 
M357.974915,213.242004 
	C357.700806,210.382187 357.829834,207.383789 356.921600,204.741989 
	C356.626221,203.882767 353.431488,203.293854 351.892822,203.734253 
	C348.283630,204.767303 346.673645,209.172714 348.180389,212.563049 
	C349.864014,216.351227 352.800171,216.782471 357.974915,213.242004 
z"/>
<path fill="#FFFFFF" opacity="1.000000" stroke="none" 
	d="
M300.437256,207.774963 
	C295.846771,205.693710 291.664520,203.725235 287.404541,201.942474 
	C283.278534,200.215790 279.072632,198.680069 274.901825,197.060471 
	C274.642426,197.639130 274.383057,198.217804 274.123657,198.796463 
	C279.475342,202.086319 284.827057,205.376190 290.178772,208.666046 
	C281.567535,210.379379 274.134094,208.173279 268.079773,202.443054 
	C264.359070,198.921524 260.706360,195.760193 254.083588,194.768051 
	C257.779114,198.029434 260.566010,200.488937 263.352875,202.948456 
	C262.894531,203.584030 262.436188,204.219604 261.977814,204.855179 
	C257.569275,202.320038 252.872833,200.173584 248.813705,197.166748 
	C240.980087,191.363876 233.488815,185.096924 225.897766,178.970123 
	C224.333832,177.707840 221.112503,176.670227 224.820587,173.863007 
	C228.282166,176.811890 231.613693,179.933075 235.237320,182.667130 
	C240.049866,186.298233 244.948471,188.305328 251.072617,184.613174 
	C258.185516,180.324936 265.571533,176.301224 274.122375,175.425842 
	C275.905640,175.243286 277.686249,175.034882 279.649536,174.818375 
	C272.990204,185.302689 266.789032,187.631790 244.650528,188.153259 
	C254.995728,196.192490 266.177032,194.836258 277.467773,185.308884 
	C282.190186,181.324005 288.284271,178.964737 294.257996,176.689224 
	C289.127960,186.958603 283.301727,196.141800 270.331177,196.521667 
	C279.007904,198.206802 285.812744,194.924896 292.202209,189.448730 
	C297.925110,184.543854 302.794830,177.712845 312.229980,178.953812 
	C308.476196,186.924896 303.159851,193.370575 293.935394,196.744049 
	C299.604431,197.557159 303.645935,195.768234 307.393707,192.197937 
	C313.604279,186.281494 320.134613,180.700699 327.293335,175.735260 
	C325.403442,184.773926 320.010223,190.907700 312.617065,195.406815 
	C318.896057,196.596420 329.036255,191.720963 332.404205,186.225494 
	C334.879242,182.187027 337.878510,178.469849 340.644165,174.609467 
	C341.299408,174.934540 341.954651,175.259598 342.609894,175.584656 
	C341.229950,179.241348 339.850006,182.898041 338.199310,187.272232 
	C347.116760,183.173828 351.501068,172.305466 362.840759,171.550629 
	C359.057098,186.565216 344.887421,184.956619 334.069000,190.555481 
	C339.250366,190.555481 343.486023,190.555481 347.721680,190.555481 
	C347.768402,191.099838 347.815155,191.644196 347.861877,192.188568 
	C340.117523,200.399643 329.965027,192.924881 320.415039,194.954956 
	C324.564636,197.149216 327.858185,198.890808 331.789337,200.969559 
	C323.112488,205.178528 315.796265,201.662994 308.277313,199.783752 
	C303.385162,198.561035 298.290161,198.149902 293.286011,197.375183 
	C293.156464,197.985077 293.026886,198.594971 292.897308,199.204865 
	C298.296539,201.355072 303.695770,203.505280 309.095001,205.655487 
	C309.084351,205.998062 309.073730,206.340637 309.063110,206.683228 
	C306.312561,207.111801 303.562012,207.540390 300.437256,207.774963 
z"/>
<path fill="#FFFFFF" opacity="1.000000" stroke="none" 
	d="
M86.506714,274.809387 
	C72.727341,269.644196 65.524780,260.069519 63.916721,245.811432 
	C62.600254,234.138779 65.260445,223.726257 72.755661,214.853012 
	C82.126450,203.759415 98.459694,202.109695 112.237709,207.675110 
	C113.261902,208.088821 114.250420,208.590836 115.590828,209.205566 
	C115.839661,207.726334 116.041672,206.525497 116.270119,205.167480 
	C118.069077,205.167480 119.834373,205.167480 121.799942,205.167480 
	C121.799942,213.091110 121.799942,220.862015 121.799942,228.792267 
	C119.254608,229.168228 117.355171,229.338394 116.939362,225.832840 
	C115.224258,211.373520 99.378677,205.133820 86.657959,212.808441 
	C75.570480,219.497711 72.521988,234.895630 74.356621,245.602036 
	C75.732185,253.629395 78.992264,260.812256 86.170158,265.752167 
	C96.860870,273.109680 108.370949,270.087677 117.389969,263.004028 
	C118.916534,261.805023 119.930794,259.953735 121.181732,258.403809 
	C121.799980,258.588287 122.418221,258.772766 123.036469,258.957245 
	C123.036469,260.450745 123.618881,262.312408 122.944305,263.379456 
	C117.558228,271.899017 108.895203,274.830231 99.572983,275.864807 
	C95.430962,276.324493 91.126190,275.317719 86.506714,274.809387 
z"/>
<path fill="#FFFFFF" opacity="1.000000" stroke="none" 
	d="
M394.506165,229.187714 
	C391.172760,229.021301 387.955963,228.312912 385.337799,229.259827 
	C383.573853,229.897797 381.477722,232.963409 381.616699,234.783676 
	C381.865967,238.047836 381.531860,240.208954 378.194397,240.964859 
	C374.211273,241.867004 371.585571,239.512115 372.256348,236.060089 
	C372.872681,232.888046 374.976715,229.181946 377.580475,227.384918 
	C383.605835,223.226425 390.928223,222.919891 397.829315,224.490997 
	C405.422272,226.219604 407.586121,231.883423 407.899048,239.464157 
	C408.310059,249.420441 407.999969,259.406494 407.999969,269.980286 
	C410.009552,269.869110 411.824158,269.768738 413.809265,269.658936 
	C413.809265,270.753387 413.809265,272.190216 413.809265,273.816467 
	C408.960785,273.816467 404.170654,273.816467 399.210266,273.816467 
	C399.088257,272.694458 398.967896,271.587646 398.830872,270.327545 
	C398.379089,270.551270 397.911591,270.676575 397.582123,270.961487 
	C390.009003,277.510315 378.498779,277.844604 372.296326,271.824066 
	C366.341766,266.044159 369.284088,257.446167 373.933777,254.065704 
	C381.200714,248.782410 389.417938,246.191071 398.981018,247.090485 
	C398.954926,240.589142 399.549194,234.421432 394.506165,229.187714 
M398.997467,252.791977 
	C398.447083,252.196198 397.709015,250.992554 397.374542,251.095840 
	C392.379944,252.638229 387.026215,253.677872 382.673157,256.336029 
	C380.736664,257.518524 379.927399,262.184570 380.354797,265.004517 
	C380.623718,266.778961 383.975067,269.011169 386.221130,269.389191 
	C393.200409,270.563751 398.999908,264.936401 399.000031,257.706604 
	C399.000031,256.376892 398.999908,255.047195 398.997467,252.791977 
z"/>
<path fill="#FFFFFF" opacity="1.000000" stroke="none" 
	d="
M135.148560,266.643707 
	C127.891769,254.766129 128.313568,243.156616 136.333725,232.530350 
	C142.069580,224.930664 152.003738,221.689041 162.786636,225.064453 
	C170.179611,227.378708 175.637238,234.919754 174.792557,246.405777 
	C163.719635,246.405777 152.551605,246.405777 141.410538,246.405777 
	C141.078659,256.776123 144.163391,265.841522 150.377213,268.807587 
	C156.965424,271.952362 164.311523,269.810699 172.747040,261.927612 
	C176.459976,263.408722 175.945038,265.359894 173.624481,267.919189 
	C165.815247,276.531769 146.575241,281.355774 135.148560,266.643707 
M164.714417,237.185928 
	C162.105103,230.008179 158.704178,227.895370 151.547684,229.006180 
	C146.840805,229.736740 142.208313,236.003998 142.199524,242.000000 
	C145.996140,242.000000 149.796066,242.000000 153.595993,242.000000 
	C157.367188,242.000000 161.138397,242.000000 164.982086,242.000000 
	C164.982086,240.332077 164.982086,239.171112 164.714417,237.185928 
z"/>
<path fill="#FFFFFF" opacity="1.000000" stroke="none" 
	d="
M217.852325,271.347412 
	C205.201401,260.252319 205.690063,238.075760 219.848343,227.800262 
	C226.277832,223.133987 233.825562,222.473190 241.244537,225.153305 
	C250.635696,228.545898 253.326111,236.484253 254.043671,246.471344 
	C242.721024,246.471344 231.548477,246.471344 220.493378,246.471344 
	C218.928711,258.332825 223.786835,266.338806 228.723434,268.790070 
	C234.943939,271.878906 244.034073,269.532501 251.518814,262.036041 
	C252.406464,262.982819 253.299408,263.935211 254.168167,264.861816 
	C243.774277,277.258942 234.274872,278.985962 217.852325,271.347412 
M243.623825,241.823883 
	C243.415527,240.534515 243.191177,239.247482 243.001709,237.955368 
	C242.149490,232.143082 238.636276,228.999252 232.979095,229.000015 
	C225.435974,229.001038 222.287430,232.190063 220.320770,241.988724 
	C227.832657,241.988724 235.303604,241.988724 243.623825,241.823883 
z"/>
<path fill="#FFFFFF" opacity="1.000000" stroke="none" 
	d="
M269.477875,273.809479 
	C267.280182,274.220642 265.457489,274.797577 262.680237,275.676697 
	C262.339783,269.411163 262.049164,264.062408 261.761047,258.760345 
	C265.609528,258.019867 265.609528,258.019867 266.966278,261.913910 
	C269.671906,269.679321 278.679047,273.530334 285.710327,269.569000 
	C287.547974,268.533691 289.756683,266.047607 289.698853,264.297150 
	C289.628235,262.161316 287.823212,259.299957 285.924286,258.166931 
	C281.693909,255.642822 277.002991,253.832748 272.380737,252.038208 
	C266.844116,249.888657 262.474518,244.355560 261.936768,239.128601 
	C261.298920,232.928436 266.032867,225.064148 274.881287,224.123245 
	C278.534363,223.734787 282.325897,224.887802 286.062012,224.962631 
	C288.896179,225.019394 291.742279,224.479187 294.792267,224.184387 
	C294.792267,229.993729 294.792267,235.772278 294.792267,243.449982 
	C292.930756,241.510757 291.394714,240.647491 291.088043,239.465317 
	C289.646576,233.908722 287.014069,229.560638 280.942383,228.478256 
	C277.014496,227.778030 272.979797,228.808472 271.420135,232.436630 
	C270.056488,235.608902 270.101562,239.469864 274.742798,241.412781 
	C280.045410,243.632614 285.100800,246.445694 290.251556,249.024994 
	C295.981598,251.894363 299.945404,258.289307 298.975281,263.046173 
	C297.502747,270.266449 291.394440,275.969635 284.245789,275.882568 
	C279.441132,275.824066 274.650024,274.650146 269.477875,273.809479 
z"/>
<path fill="#FFFFFF" opacity="1.000000" stroke="none" 
	d="
M336.728271,270.766174 
	C331.980072,275.635925 326.368134,277.113800 320.350494,275.693237 
	C314.602081,274.336243 311.060852,268.009583 311.014587,260.308594 
	C310.954742,250.353210 311.000000,240.397171 311.000000,230.072937 
	C308.597900,230.072937 306.515594,230.072937 304.219666,230.072937 
	C304.219666,228.286560 304.219666,226.867188 304.219666,225.419708 
	C311.150604,223.694916 314.102356,218.289978 316.536255,212.178741 
	C317.810608,212.178741 319.240906,212.178741 321.034973,212.178741 
	C321.034973,216.443161 321.034973,220.538208 321.034973,224.851440 
	C326.344269,224.851440 331.291687,224.851440 336.769012,224.851440 
	C336.849121,226.561737 336.919647,228.067322 337.009338,229.982513 
	C331.584045,229.982513 326.495514,229.982513 321.000000,229.982513 
	C321.000000,235.804947 321.000000,241.251709 321.000000,246.698471 
	C321.000000,251.345993 320.595978,256.042297 321.149170,260.623016 
	C321.489594,263.441864 322.576111,267.378723 324.606476,268.501984 
	C327.643250,270.181946 331.679169,269.359283 334.350861,266.126221 
	C334.988800,265.354279 335.627350,264.582855 336.443329,263.596252 
	C337.739014,264.552277 338.746460,265.295654 339.900848,266.147491 
	C338.867279,267.696777 337.928864,269.103424 336.728271,270.766174 
z"/>
<path fill="#FFFFFF" opacity="1.000000" stroke="none" 
	d="
M182.614319,273.827942 
	C182.457855,272.631653 182.534241,270.776245 183.011978,270.666382 
	C187.803162,269.564789 186.986542,265.869293 186.991882,262.566254 
	C187.012054,250.090912 187.000000,237.615555 187.000000,225.140198 
	C187.000000,219.599152 187.000000,214.058090 187.000000,208.162643 
	C185.736862,208.094025 183.639145,207.980087 181.200180,207.847610 
	C181.122879,206.388275 181.048157,204.977112 180.979843,203.687424 
	C186.351135,202.748871 191.492264,201.850540 196.623535,200.953934 
	C196.623535,224.082947 196.623535,246.782303 196.623535,269.769958 
	C197.985672,269.879669 199.747375,270.021545 201.822830,270.188721 
	C201.880997,271.300018 201.938934,272.406677 202.021240,273.978943 
	C195.602631,273.978943 189.318024,273.978943 182.614319,273.827942 
z"/>
<path fill="#FFFFFF" opacity="1.000000" stroke="none" 
	d="
M427.072540,274.000000 
	C424.114899,274.000000 421.642487,274.000000 417.824707,274.000000 
	C419.312836,272.306213 419.871277,271.076263 420.746246,270.779327 
	C424.208038,269.604767 424.913452,266.699158 424.933533,263.819427 
	C425.062347,245.357483 424.999237,226.894196 424.999237,208.052277 
	C422.589417,208.052277 420.510742,208.052277 418.219879,208.052277 
	C418.219879,206.268250 418.219879,204.861420 418.219879,203.641052 
	C423.394012,202.734222 428.454926,201.847244 433.881775,200.896133 
	C433.881775,223.879333 433.881775,246.655090 433.881775,269.793457 
	C435.940887,269.913330 437.684631,270.014862 439.695221,270.131927 
	C440.264862,272.481445 440.537415,274.261963 437.053802,274.041931 
	C433.900146,273.842712 430.723969,273.999939 427.072540,274.000000 
z"/>
<path fill="#FFFFFF" opacity="1.000000" stroke="none" 
	d="
M343.115540,273.273132 
	C343.035736,272.516998 342.957458,271.942200 343.085876,271.891541 
	C349.749298,269.263702 349.115082,263.604492 349.032806,258.038513 
	C348.907440,249.560059 349.000000,241.078369 349.000000,232.241882 
	C346.746643,232.104218 344.671967,231.977493 342.246429,231.829330 
	C342.145447,230.430649 342.043701,229.021515 341.968536,227.980179 
	C347.302582,226.649597 352.372681,225.384872 357.794861,224.032303 
	C357.794861,239.190338 357.794861,254.266861 357.794861,269.690338 
	C359.862732,269.863373 361.600555,270.008759 363.710785,270.185333 
	C363.784546,271.286194 363.863892,272.469971 363.946228,273.699036 
	C356.793488,273.699036 350.003479,273.699036 343.115540,273.273132 
z"/>
<path fill="#FFFFFF" opacity="1.000000" stroke="none" 
	d="
M133.731705,185.998810 
	C131.311401,185.999847 129.337097,185.999847 127.695770,185.999847 
	C129.749146,176.964188 129.709702,168.257278 127.747559,159.287384 
	C129.998642,159.287384 132.886658,159.287384 134.823685,159.287384 
	C134.457565,163.031693 134.092178,166.768616 133.699051,170.789215 
	C138.087296,170.789215 141.825043,170.789215 146.262115,170.789215 
	C145.911957,166.832840 145.580643,163.089355 145.239166,159.230942 
	C147.045410,159.230942 149.962128,159.230942 153.042938,159.230942 
	C150.149902,163.285721 150.160538,182.063995 153.225327,185.614700 
	C149.976578,185.614700 147.052094,185.614700 145.029297,185.614700 
	C145.476837,181.867172 145.909546,178.243744 146.383209,174.277298 
	C142.064682,174.277298 138.324890,174.277298 133.214142,174.277298 
	C134.150726,177.952835 135.069733,181.404968 135.831863,184.891403 
	C135.883636,185.128326 134.756531,185.622986 133.731705,185.998810 
z"/>
<path fill="#FFFFFF" opacity="1.000000" stroke="none" 
	d="
M299.249268,306.364349 
	C300.649200,303.248962 301.834564,300.472046 303.607330,296.318939 
	C298.303986,297.237640 293.962463,297.989746 289.176880,298.818726 
	C289.142487,298.110657 289.053589,296.281830 288.953217,294.216370 
	C300.614105,294.216370 312.036804,294.216370 323.982117,294.216370 
	C323.872345,295.775543 324.050201,297.412201 323.605530,298.857361 
	C321.495850,305.713837 319.316620,312.553955 316.897858,319.305206 
	C316.499390,320.417480 314.785126,321.058319 313.678955,321.917023 
	C313.446198,320.600403 312.686157,319.102417 313.066498,317.996704 
	C315.457428,311.045868 318.102051,304.182312 321.066376,296.203491 
	C315.434143,297.316681 310.469299,298.297974 305.318848,299.315918 
	C302.732086,306.647339 300.061737,314.264282 297.290527,321.844330 
	C297.204315,322.080078 296.074738,321.934387 294.088745,322.033630 
	C295.854187,316.561310 297.444427,311.632050 299.249268,306.364349 
z"/>
<path fill="#FFFFFF" opacity="1.000000" stroke="none" 
	d="
M268.728394,311.356201 
	C268.560760,305.031860 268.357544,298.979858 273.773346,294.758850 
	C277.489532,291.862518 284.010529,292.382324 285.915527,295.894196 
	C286.525665,297.018951 286.600739,298.596680 286.422394,299.898895 
	C286.359253,300.359985 284.269531,301.124207 284.042419,300.879608 
	C283.156219,299.925201 282.623566,298.633453 282.008057,297.442017 
	C281.805908,297.050812 281.751160,296.583496 281.665253,296.279297 
	C273.963593,294.222961 275.091705,300.949280 272.709717,304.614288 
	C275.264404,304.387512 277.446777,304.033905 279.629364,304.032745 
	C284.421570,304.030243 287.679016,307.299500 287.983856,312.198090 
	C288.245178,316.397522 284.171021,321.503235 280.163910,321.998016 
	C272.538025,322.939697 269.284149,319.953735 268.728394,311.356201 
M282.997986,312.633118 
	C282.607758,311.586975 282.442200,310.357971 281.774597,309.537598 
	C280.778473,308.313599 279.020905,306.271027 278.308014,306.533569 
	C276.426147,307.226746 273.649597,308.894623 273.562897,310.316711 
	C273.404907,312.908020 274.290100,316.129089 275.920685,318.121002 
	C277.993591,320.653290 280.692963,320.086243 281.984863,316.616760 
	C282.373199,315.573822 282.662811,314.494141 282.997986,312.633118 
z"/>
<path fill="#FFFFFF" opacity="1.000000" stroke="none" 
	d="
M197.054749,318.997375 
	C199.878754,318.622314 202.561035,318.802765 204.498383,317.688232 
	C206.003067,316.822632 206.578323,314.341339 207.995010,312.818207 
	C209.687393,320.866302 209.576065,320.999634 201.954285,320.999969 
	C197.350845,321.000153 192.747406,321.000000 187.778351,321.000000 
	C190.825546,316.805298 190.818024,298.042023 187.895691,294.314636 
	C194.327011,294.314636 200.518005,294.314636 206.610992,294.314636 
	C206.610992,296.608917 206.610992,298.766510 206.610992,301.344391 
	C204.876572,299.283203 203.822296,297.028381 202.104782,296.264130 
	C200.299469,295.460785 197.859253,296.084259 195.348206,296.084259 
	C195.348206,299.262177 195.348206,302.462250 195.348206,305.836670 
	C197.023758,305.836670 198.644363,305.836670 200.623993,305.836670 
	C200.876709,304.659912 201.159714,303.342194 201.442719,302.024475 
	C201.753311,302.032745 202.063889,302.041046 202.374481,302.049316 
	C202.374481,305.312256 202.374481,308.575165 202.374481,311.271973 
	C200.473831,310.034332 198.283127,308.607788 196.092422,307.181244 
	C195.508087,307.582245 194.923752,307.983276 194.339417,308.384277 
	C195.090332,311.921234 195.841248,315.458160 197.054749,318.997375 
z"/>
<path fill="#FFFFFF" opacity="1.000000" stroke="none" 
	d="
M156.556213,180.064728 
	C155.488190,170.072037 158.839615,165.886276 167.288651,166.000000 
	C171.966080,166.062958 175.765930,169.433899 175.999817,173.727890 
	C176.420105,181.444046 173.591492,186.295090 168.262985,186.996475 
	C162.043274,187.815170 159.566055,186.370438 156.556213,180.064728 
M169.065872,169.602036 
	C166.917053,166.614822 164.635101,168.256912 162.844589,169.782242 
	C159.870239,172.316086 160.506714,180.573288 163.619095,183.096512 
	C166.166245,185.161484 170.745102,183.831680 170.858658,180.671204 
	C170.983994,177.182358 170.113266,173.657700 169.065872,169.602036 
z"/>
<path fill="#FFFFFF" opacity="1.000000" stroke="none" 
	d="
M197.095581,167.991837 
	C200.903748,167.363235 204.667587,165.631821 207.589432,166.557663 
	C209.891556,167.287109 211.156219,171.290695 213.650162,174.975449 
	C207.307465,174.975449 202.745193,174.975449 198.072647,174.975449 
	C200.980789,185.360550 202.779892,186.129623 211.378815,181.052597 
	C211.066238,186.190994 203.618912,189.125809 198.624603,186.078735 
	C191.971100,182.019363 191.356339,176.290894 197.095581,167.991837 
M202.665329,168.037186 
	C201.294052,169.334915 199.922791,170.632660 197.673889,172.760971 
	C201.751038,172.760971 204.301880,172.760971 206.852707,172.760971 
	C207.116821,172.379669 207.380936,171.998367 207.645050,171.617065 
	C206.253769,170.413116 204.862473,169.209152 202.665329,168.037186 
z"/>
<path fill="#FFFFFF" opacity="1.000000" stroke="none" 
	d="
M213.090118,310.581238 
	C210.560928,301.457794 212.281235,300.104095 224.525177,301.229065 
	C224.525177,303.801422 224.525177,306.361908 224.525177,309.424622 
	C222.774796,307.100861 221.659637,305.098328 220.022690,303.711945 
	C219.394501,303.179932 217.576050,304.053284 216.299957,304.286255 
	C216.617996,305.437347 216.572906,307.075562 217.328934,307.639160 
	C218.953583,308.850372 220.970245,309.555511 222.864212,310.381165 
	C225.927704,311.716675 227.676315,314.044556 226.822144,317.291473 
	C226.021484,320.335083 223.707291,322.161804 220.297546,321.993225 
	C217.668869,321.863281 215.043137,321.673370 212.262482,321.500549 
	C212.262482,319.267151 212.262482,316.713531 212.262482,312.896912 
	C215.120712,317.326874 216.997375,322.375519 223.618835,317.191528 
	C219.891418,314.906342 216.619720,312.900574 213.090118,310.581238 
z"/>
<path fill="#FFFFFF" opacity="1.000000" stroke="none" 
	d="
M258.000000,311.829407 
	C258.000000,307.383179 258.000000,303.407990 258.000000,299.103546 
	C256.299683,299.439362 254.845505,299.726593 253.391327,300.013794 
	C253.151154,299.601868 252.910980,299.189941 252.670807,298.778015 
	C255.787399,296.626404 258.903992,294.474762 263.000000,291.646942 
	C263.000000,300.479797 262.887787,307.750519 263.083221,315.012939 
	C263.128937,316.711853 264.217194,318.382751 264.967926,320.459717 
	C262.378601,320.459717 258.806549,320.459717 256.061554,320.459717 
	C256.650482,317.980865 257.325256,315.140686 258.000000,311.829407 
z"/>
<path fill="#FFFFFF" opacity="1.000000" stroke="none" 
	d="
M221.000000,168.018082 
	C221.765671,174.113144 219.279480,180.078140 222.855865,185.680435 
	C220.030853,185.680435 217.164703,185.680435 215.050323,185.680435 
	C216.409103,176.284744 217.052261,166.923141 214.330353,157.401230 
	C216.244827,157.026352 218.421417,156.600174 221.000000,156.095261 
	C221.000000,159.952820 221.000000,163.738373 221.000000,168.018082 
z"/>
<path fill="#FFFFFF" opacity="1.000000" stroke="none" 
	d="
M241.556076,303.696594 
	C239.347702,303.958832 237.516266,303.958832 234.655594,303.958832 
	C235.150452,309.137238 235.624222,314.095032 236.150314,319.600250 
	C239.137283,318.229858 240.772842,317.479462 242.408386,316.729095 
	C241.457062,320.931976 239.028030,322.783600 235.161804,321.944580 
	C231.673874,321.187714 230.797363,318.592865 230.973328,315.327209 
	C231.107574,312.835754 231.000229,310.331238 230.999847,307.832550 
	C230.999756,307.166229 231.092484,306.483704 230.981689,305.836151 
	C230.138138,300.906219 230.125702,300.908356 234.521912,295.530823 
	C234.792175,297.493835 234.997711,298.986725 235.194351,300.415131 
	C236.788132,302.855530 241.560822,298.029694 241.556076,303.696594 
z"/>
<path fill="#FFFFFF" opacity="1.000000" stroke="none" 
	d="
M187.603058,186.990448 
	C182.573441,187.653503 181.051880,185.081299 181.006165,181.022720 
	C180.974380,178.201370 181.001770,175.379349 180.998871,172.557632 
	C180.998032,171.727814 181.206009,170.817551 180.939285,170.081512 
	C179.448364,165.967270 179.955856,164.486053 184.674500,160.794083 
	C184.873276,162.569366 185.042587,164.081451 185.257523,166.000931 
	C186.694946,166.000931 188.185837,165.817749 189.599426,166.069122 
	C190.457184,166.221634 191.195435,167.046066 191.987366,167.568649 
	C191.150574,168.045578 190.360443,168.772339 189.465775,168.939468 
	C188.199646,169.175980 186.856354,168.999420 185.000000,168.999420 
	C185.000000,171.435364 184.999939,173.702896 185.000015,175.970428 
	C185.000290,183.956680 184.998734,183.951065 191.827759,182.042297 
	C192.083069,181.970932 192.428543,182.222076 194.039627,182.757462 
	C191.606079,184.463745 189.810165,185.722946 187.603058,186.990448 
z"/>
<path fill="#FFFFFF" opacity="1.000000" stroke="none" 
	d="
M357.772125,213.592010 
	C352.800171,216.782471 349.864014,216.351227 348.180389,212.563049 
	C346.673645,209.172714 348.283630,204.767303 351.892822,203.734253 
	C353.431488,203.293854 356.626221,203.882767 356.921600,204.741989 
	C357.829834,207.383789 357.700806,210.382187 357.772125,213.592010 
z"/>
<path fill="#000000" opacity="1.000000" stroke="none" 
	d="
M398.998657,253.254730 
	C398.999908,255.047195 399.000031,256.376892 399.000031,257.706604 
	C398.999908,264.936401 393.200409,270.563751 386.221130,269.389191 
	C383.975067,269.011169 380.623718,266.778961 380.354797,265.004517 
	C379.927399,262.184570 380.736664,257.518524 382.673157,256.336029 
	C387.026215,253.677872 392.379944,252.638229 397.374542,251.095840 
	C397.709015,250.992554 398.447083,252.196198 398.998657,253.254730 
z"/>
<path fill="#000000" opacity="1.000000" stroke="none" 
	d="
M164.848251,237.598022 
	C164.982086,239.171112 164.982086,240.332077 164.982086,242.000000 
	C161.138397,242.000000 157.367188,242.000000 153.595993,242.000000 
	C149.796066,242.000000 145.996140,242.000000 142.199524,242.000000 
	C142.208313,236.003998 146.840805,229.736740 151.547684,229.006180 
	C158.704178,227.895370 162.105103,230.008179 164.848251,237.598022 
z"/>
<path fill="#000000" opacity="1.000000" stroke="none" 
	d="
M243.199188,241.906311 
	C235.303604,241.988724 227.832657,241.988724 220.320770,241.988724 
	C222.287430,232.190063 225.435974,229.001038 232.979095,229.000015 
	C238.636276,228.999252 242.149490,232.143082 243.001709,237.955368 
	C243.191177,239.247482 243.415527,240.534515 243.199188,241.906311 
z"/>
<path fill="#000000" opacity="1.000000" stroke="none" 
	d="
M282.997803,313.032196 
	C282.662811,314.494141 282.373199,315.573822 281.984863,316.616760 
	C280.692963,320.086243 277.993591,320.653290 275.920685,318.121002 
	C274.290100,316.129089 273.404907,312.908020 273.562897,310.316711 
	C273.649597,308.894623 276.426147,307.226746 278.308014,306.533569 
	C279.020905,306.271027 280.778473,308.313599 281.774597,309.537598 
	C282.442200,310.357971 282.607758,311.586975 282.997803,313.032196 
z"/>
<path fill="#000000" opacity="1.000000" stroke="none" 
	d="
M169.371140,169.875336 
	C170.113266,173.657700 170.983994,177.182358 170.858658,180.671204 
	C170.745102,183.831680 166.166245,185.161484 163.619095,183.096512 
	C160.506714,180.573288 159.870239,172.316086 162.844589,169.782242 
	C164.635101,168.256912 166.917053,166.614822 169.371140,169.875336 
z"/>
<path fill="#000000" opacity="1.000000" stroke="none" 
	d="
M203.068253,168.021179 
	C204.862473,169.209152 206.253769,170.413116 207.645050,171.617065 
	C207.380936,171.998367 207.116821,172.379669 206.852707,172.760971 
	C204.301880,172.760971 201.751038,172.760971 197.673889,172.760971 
	C199.922791,170.632660 201.294052,169.334915 203.068253,168.021179 
z"/>
</svg>